<svg width="27" height="37" viewBox="0 0 27 37" fill="none" xmlns="http://www.w3.org/2000/svg">
<path fill-rule="evenodd" clip-rule="evenodd" d="M11.4964 0.762659C12.6415 0.0602344 14.0841 0.0602332 15.2292 0.762657L24.9151 6.70396C25.9732 7.35305 26.6182 8.50529 26.6182 9.74668V22.0124C26.6182 23.2538 25.9732 24.406 24.9151 25.0551L16.718 30.0832C17.1436 31.2258 17.8068 32.1881 19.0736 33.1331C19.2391 33.2566 19.2673 33.4973 19.1275 33.6494L16.3639 36.6554C16.2344 36.7962 16.0149 36.8027 15.8868 36.6605C14.8017 35.4565 12.8605 32.5218 12.2313 31.3392C11.9773 31.2543 11.7306 31.1401 11.4964 30.9964L1.81055 25.0551C0.752378 24.406 0.107422 23.2538 0.107422 22.0124V9.74668C0.107422 8.50529 0.752378 7.35305 1.81055 6.70396L11.4964 0.762659ZM13.5406 3.51559L23.2264 9.45689C23.3272 9.51871 23.3886 9.62845 23.3886 9.74668V22.0124C23.3886 22.1306 23.3272 22.2403 23.2264 22.3021L13.5406 28.2435C13.4315 28.3104 13.2941 28.3104 13.1851 28.2435L3.4992 22.3021C3.39842 22.2403 3.337 22.1306 3.337 22.0124V9.74668C3.337 9.62845 3.39842 9.51871 3.4992 9.45689L13.1851 3.51559C13.2941 3.44869 13.4315 3.44869 13.5406 3.51559Z" fill="white"/>
</svg>
